<svg xmlns="http://www.w3.org/2000/svg" viewBox="0 0 48 48"><title>28-code</title><g id="_28-code" data-name="28-code"><path d="M44,13H42V9a1,1,0,0,0-1-1H19V6H41a3,3,0,0,1,3,3Z"/><path d="M23,40H7a3,3,0,0,1-3-3V18H6V37a1,1,0,0,0,1,1H23Z"/><rect x="15" y="39" width="2" height="4"/><path d="M13,47H11V45a3,3,0,0,1,3-3h9v2H14a1,1,0,0,0-1,1Z"/><rect x="9" y="46" width="16" height="2"/><path d="M45,48H25a3,3,0,0,1-3-3V15a3,3,0,0,1,3-3H45a3,3,0,0,1,3,3V45A3,3,0,0,1,45,48ZM25,14a1,1,0,0,0-1,1V45a1,1,0,0,0,1,1H45a1,1,0,0,0,1-1V15a1,1,0,0,0-1-1Z"/><rect x="23" y="18" width="24" height="2"/><rect x="23" y="40" width="24" height="2"/><rect x="32" y="15" width="6" height="2"/><rect x="32" y="43" width="6" height="2"/><path d="M16,22a1,1,0,0,1-.707-.293l-2.2-2.2A10.039,10.039,0,1,1,17,17.127V21a1,1,0,0,1-.617.924A.987.987,0,0,1,16,22Zm-2.65-4.65a1,1,0,0,1,.707.293l.943.943V16.694a1,1,0,0,1,.332-.744,7.963,7.963,0,1,0-2.355,1.472A.993.993,0,0,1,13.35,17.35Z"/><path d="M5,12a2,2,0,1,1,2-2A2,2,0,0,1,5,12Zm0-2v0Z"/><path d="M10,12a2,2,0,1,1,2-2A2,2,0,0,1,10,12Zm0-2v0Z"/><path d="M15,12a2,2,0,1,1,2-2A2,2,0,0,1,15,12Zm0-2v0Z"/><rect x="5" y="32" width="18" height="2"/><path d="M13,30H9a1,1,0,0,1-1-1V25h2v3h3Z"/><rect x="15" y="28" width="2" height="2"/><path d="M30.293,33.707l-3-3a1,1,0,0,1,0-1.414l3-3,1.414,1.414L29.414,30l2.293,2.293Z"/><path d="M39.707,33.707l-1.414-1.414L40.586,30l-2.293-2.293,1.414-1.414,3,3a1,1,0,0,1,0,1.414Z"/><rect x="31.394" y="29" width="7.211" height="2" transform="translate(-9.376 42.481) rotate(-56.31)"/><rect x="26" y="22" width="2" height="2"/><rect x="30" y="22" width="2" height="2"/><rect x="42" y="36" width="2" height="2"/><rect x="38" y="36" width="2" height="2"/></g></svg>